<?xml version="1.0" encoding="iso-8859-1"?>
<!-- Uploaded to: SVG Repo, www.svgrepo.com, Generator: SVG Repo Mixer Tools -->
<svg height="800px" width="800px" version="1.1" id="Layer_1" xmlns="http://www.w3.org/2000/svg" xmlns:xlink="http://www.w3.org/1999/xlink" 
	 viewBox="0 0 512 512" xml:space="preserve">
<path style="fill:#FAA85F;" d="M256,336c-44.112,0-80-35.888-80-80V96c0-44.112,35.888-80,80-80s80,35.888,80,80v160
	C336,300.112,300.112,336,256,336z"/>
<path style="fill:#00384D;" d="M352,160V96c0-53.024-42.976-96-96-96s-96,42.976-96,96v64H96v96
	c0,82.816,63.264,151.136,144,159.184V480h-64v32h64h32h64v-32h-64v-64.816C352.736,407.12,416,338.816,416,256v-96L352,160L352,160
	z M192,224v-32h48v-32h-48v-32h48V96h-48c0-35.296,28.704-64,64-64s64,28.704,64,64h-48v32h48v32h-48v32h48v32h-48v32h48
	c0,35.296-28.704,64-64,64s-64-28.704-64-64h48v-32H192z M384,256c0,70.576-57.424,128-128,128s-128-57.424-128-128v-64h32v64
	c0,53.024,42.976,96,96,96s96-42.976,96-96v-64h32V256z"/>
</svg>